<?xml version="1.0" encoding="UTF-8" standalone="no"?>
<!-- Created with Inkscape (http://www.inkscape.org/) -->

<svg
   xmlns:dc="http://purl.org/dc/elements/1.1/"
   xmlns:cc="http://creativecommons.org/ns#"
   xmlns:rdf="http://www.w3.org/1999/02/22-rdf-syntax-ns#"
   xmlns:svg="http://www.w3.org/2000/svg"
   xmlns="http://www.w3.org/2000/svg"
   xmlns:xlink="http://www.w3.org/1999/xlink"
   xmlns:sodipodi="http://sodipodi.sourceforge.net/DTD/sodipodi-0.dtd"
   xmlns:inkscape="http://www.inkscape.org/namespaces/inkscape"
   width="166.50201mm"
   height="66.849709mm"
   viewBox="0 0 589.96777 236.86905"
   id="svg2"
   version="1.1"
   inkscape:version="0.91 r13725"
   sodipodi:docname="Extension.svg">
  <defs
     id="defs4">
    <linearGradient
       inkscape:collect="always"
       id="linearGradient4362">
      <stop
         style="stop-color:#af0000;stop-opacity:1;"
         offset="0"
         id="stop4364" />
      <stop
         style="stop-color:#af0000;stop-opacity:0;"
         offset="1"
         id="stop4366" />
    </linearGradient>
    <radialGradient
       inkscape:collect="always"
       xlink:href="#linearGradient4362"
       id="radialGradient4368"
       cx="439.46237"
       cy="125.68664"
       fx="439.46237"
       fy="125.68664"
       r="0.59294796"
       gradientTransform="matrix(1,0,0,54.868975,0,-6770.6106)"
       gradientUnits="userSpaceOnUse" />
    <linearGradient
       inkscape:collect="always"
       xlink:href="#linearGradient4362"
       id="linearGradient4376"
       x1="259.20822"
       y1="146.90796"
       x2="512.29346"
       y2="143.64709"
       gradientUnits="userSpaceOnUse" />
    <linearGradient
       inkscape:collect="always"
       xlink:href="#linearGradient4362"
       id="linearGradient4552"
       gradientUnits="userSpaceOnUse"
       x1="512.46912"
       y1="155.60361"
       x2="423.16302"
       y2="140.38623" />
    <linearGradient
       inkscape:collect="always"
       xlink:href="#linearGradient4362"
       id="linearGradient4560"
       x1="332.51028"
       y1="243.29694"
       x2="397.53085"
       y2="241.86836"
       gradientUnits="userSpaceOnUse" />
    <linearGradient
       inkscape:collect="always"
       xlink:href="#linearGradient4362"
       id="linearGradient4568"
       gradientUnits="userSpaceOnUse"
       x1="396.629"
       y1="242.8289"
       x2="367.34329"
       y2="242.11461" />
  </defs>
  <sodipodi:namedview
     id="base"
     pagecolor="#ffffff"
     bordercolor="#666666"
     borderopacity="1.0"
     inkscape:pageopacity="0.0"
     inkscape:pageshadow="2"
     inkscape:zoom="1.4"
     inkscape:cx="474.9864"
     inkscape:cy="157.31702"
     inkscape:document-units="px"
     inkscape:current-layer="layer1"
     showgrid="false"
     inkscape:window-width="1440"
     inkscape:window-height="803"
     inkscape:window-x="0"
     inkscape:window-y="0"
     inkscape:window-maximized="1"
     fit-margin-top="0"
     fit-margin-left="0"
     fit-margin-right="0"
     fit-margin-bottom="0" />
  <metadata
     id="metadata7">
    <rdf:RDF>
      <cc:Work
         rdf:about="">
        <dc:format>image/svg+xml</dc:format>
        <dc:type
           rdf:resource="http://purl.org/dc/dcmitype/StillImage" />
        <dc:title></dc:title>
      </cc:Work>
    </rdf:RDF>
  </metadata>
  <g
     inkscape:label="Layer 1"
     inkscape:groupmode="layer"
     id="layer1"
     transform="translate(-76.629013,-78.102699)">
    <ellipse
       style="opacity:1;fill:#000000;fill-opacity:0.11764706;stroke:#000000;stroke-width:3;stroke-miterlimit:4;stroke-dasharray:none;stroke-dashoffset:0;stroke-opacity:1"
       id="path4136"
       cx="379.61288"
       cy="208.42673"
       rx="135.48387"
       ry="54.838711" />
    <path
       style="fill:url(#linearGradient4560);fill-opacity:1;fill-rule:evenodd;stroke:none;stroke-width:1px;stroke-linecap:butt;stroke-linejoin:miter;stroke-opacity:1;opacity:0.5254902"
       d="m 332.51029,234.66673 0,25.10288 34.15638,2.88066 30.86419,0.41152 -0.41152,-42.38683 c 0,0 -9.0535,3.29218 -16.87243,4.11523 -7.81893,0.82304 -20.16461,-1.23457 -27.57201,0 -7.40741,1.23457 -20.16461,9.87654 -20.16461,9.87654 z"
       id="path4211"
       inkscape:connector-curvature="0" />
    <path
       style="fill:url(#linearGradient4376);fill-opacity:1;fill-rule:evenodd;stroke:none;stroke-width:1px;stroke-linecap:butt;stroke-linejoin:miter;stroke-opacity:1;opacity:0.5"
       d="m 259.20823,141.48875 0.58314,40.52862 c 0,0 16.61965,-9.62191 27.11627,-13.41235 10.49663,-3.79045 28.28257,-9.03876 41.11177,-11.07977 12.8292,-2.04101 31.78144,-3.79045 43.15278,-4.08202 11.37134,-0.29157 35.57188,1.16629 45.48536,2.33258 9.91347,1.1663 30.03199,4.3736 40.23704,7.28932 10.20505,2.91573 26.53313,8.45562 32.65616,12.82921 6.12303,4.37359 11.95448,6.12303 15.74493,10.49662 3.79045,4.37359 6.99775,9.33033 6.99775,9.33033 l -1.45787,-54.81569 c 0,0 -3.2073,-2.33258 -6.4146,-4.08202 -3.2073,-1.74944 -8.74718,-4.08202 -14.57864,-6.99775 -5.83146,-2.91572 -13.70392,-7.28932 -18.36909,-11.66291 -4.66516,-4.37359 -11.37134,-15.74493 -16.61965,-19.535376 -5.24831,-3.790447 -14.57864,-6.414602 -20.99324,-6.414602 -6.4146,0 -13.99549,-2.04101 -22.15953,1.166291 -8.16404,3.207301 -15.74493,6.997747 -20.70167,11.662917 -4.95674,4.66516 -12.82921,9.6219 -18.66066,12.24605 -5.83146,2.62416 -15.45336,4.08202 -23.03425,4.66517 -7.5809,0.58314 -19.53538,0.29157 -26.8247,0.29157 -7.28932,0 -11.37134,0.29157 -20.11853,1.45787 -8.74718,1.16629 -19.82695,1.74943 -26.53312,5.83145 -6.70618,4.08202 -16.61965,11.95449 -16.61965,11.95449 z"
       id="path4195"
       inkscape:connector-curvature="0" />
    <ellipse
       ry="54.838711"
       rx="135.48387"
       cy="234.42673"
       cx="213.61288"
       id="ellipse4138"
       style="opacity:1;fill:none;fill-opacity:0.21568627;stroke:#969696;stroke-width:3;stroke-miterlimit:4;stroke-dasharray:none;stroke-dashoffset:0;stroke-opacity:1" />
    <ellipse
       style="opacity:1;fill:none;fill-opacity:0.21568627;stroke:#969696;stroke-width:3;stroke-miterlimit:4;stroke-dasharray:none;stroke-dashoffset:0;stroke-opacity:1"
       id="ellipse4140"
       cx="529.61292"
       cy="250.42673"
       rx="135.48387"
       ry="54.838711" />
    <path
       style="fill:none;fill-rule:evenodd;stroke:#ff0000;stroke-width:3;stroke-linecap:butt;stroke-linejoin:miter;stroke-miterlimit:4;stroke-dasharray:none;stroke-opacity:1"
       d="m 259.15033,183.40796 c 0,0 -8.99178,7.43588 -11.7647,12.41829 -2.08155,3.74015 -3.26798,12.41831 -3.26798,12.41831 -0.68417,11.49107 10.78431,21.89542 10.78431,21.89542 8.52711,7.08422 6.53595,6.20915 20.58824,13.0719 14.05228,6.86274 11.11111,4.90196 23.85621,8.82353 12.74509,3.92157 5.69308,1.95489 22.87581,5.88235 11.43791,2.61437 11.43791,2.61437 11.43791,2.61437"
       id="path4177"
       inkscape:connector-curvature="0"
       sodipodi:nodetypes="cscssssc" />
    <path
       style="fill:none;fill-rule:evenodd;stroke:#ff0000;stroke-width:3;stroke-linecap:butt;stroke-linejoin:miter;stroke-miterlimit:4;stroke-dasharray:none;stroke-opacity:1"
       d="m 397.38562,262.81972 c 0,0 17.64706,-1.96078 29.41177,-3.59477 11.7647,-1.63399 24.5098,-3.92157 34.96732,-7.51634 10.45751,-3.59477 21.89542,-7.84314 29.08496,-12.4183 7.18955,-4.57516 14.37909,-9.80392 18.30066,-15.35948 3.92157,-5.55555 5.55555,-11.11111 5.55555,-15.68627 0,-4.57517 -0.98039,-9.15033 -3.26797,-12.7451"
       id="path4179"
       inkscape:connector-curvature="0" />
    <path
       style="fill:none;fill-rule:evenodd;stroke:#ff0000;stroke-width:1;stroke-linecap:butt;stroke-linejoin:miter;stroke-miterlimit:4;stroke-dasharray:1, 2;stroke-dashoffset:0;stroke-opacity:1"
       d="m 332.78541,259.8081 -0.10567,-25.09295"
       id="path4181"
       inkscape:connector-curvature="0"
       sodipodi:nodetypes="cc" />
    <path
       style="fill:none;fill-rule:evenodd;stroke:#ff0000;stroke-width:1;stroke-linecap:butt;stroke-linejoin:miter;stroke-miterlimit:4;stroke-dasharray:1, 2;stroke-dashoffset:0;stroke-opacity:1"
       d="m 397.27017,262.16613 -0.21134,-42.15687"
       id="path4183"
       inkscape:connector-curvature="0"
       sodipodi:nodetypes="cc" />
    <path
       style="fill:none;fill-rule:evenodd;stroke:#ff0000;stroke-width:3;stroke-linecap:butt;stroke-linejoin:miter;stroke-miterlimit:4;stroke-dasharray:none;stroke-opacity:1"
       d="m 332.35294,234.71515 c 17.97386,-12.4183 15.11189,-10.08804 23.52941,-10.45752 8.70894,-0.38227 18.62745,2.28758 26.14379,0.65359 7.51634,-1.63398 14.96224,-4.28359 14.96224,-4.28359"
       id="path4185"
       inkscape:connector-curvature="0"
       sodipodi:nodetypes="cssc" />
    <path
       sodipodi:nodetypes="cc"
       inkscape:connector-curvature="0"
       id="path4189"
       d="m 259.60063,182.24973 0.1859,-39.96316"
       style="fill:none;fill-rule:evenodd;stroke:#ff0000;stroke-width:1;stroke-linecap:butt;stroke-linejoin:miter;stroke-miterlimit:4;stroke-dasharray:1, 2;stroke-dashoffset:0;stroke-opacity:1" />
    <path
       sodipodi:nodetypes="cc"
       inkscape:connector-curvature="0"
       id="path4191"
       d="m 512.14987,196.27068 -0.79449,-55.27765"
       style="fill:none;fill-rule:evenodd;stroke:#ff0000;stroke-width:1;stroke-linecap:butt;stroke-linejoin:miter;stroke-miterlimit:4;stroke-dasharray:1, 2;stroke-dashoffset:0;stroke-opacity:1" />
    <path
       style="fill:none;fill-rule:evenodd;stroke:#ff0000;stroke-width:3;stroke-linecap:butt;stroke-linejoin:miter;stroke-miterlimit:4;stroke-dasharray:none;stroke-opacity:1"
       d="m 259.4998,141.78032 c 0,0 6.12303,-6.70618 15.74493,-11.37134 9.62191,-4.66516 26.53313,-6.99775 26.53313,-6.99775 0,0 8.16404,-0.87472 16.32808,-0.87472 8.16403,0 27.40784,0.29157 37.61289,-0.87471 9.98895,-1.14159 20.70167,-4.66517 29.74042,-12.24606 9.03876,-7.5809 16.32808,-13.995497 25.07527,-15.453361 14.32841,-2.388068 27.99099,-2.915728 38.48761,1.166291 10.49662,4.082019 16.32808,18.36909 24.49211,24.20054 8.16404,5.83146 16.22565,11.49727 24.20055,14.57865 6.16498,2.38205 13.70392,7.28931 13.70392,7.28931"
       id="path4193"
       inkscape:connector-curvature="0"
       sodipodi:nodetypes="cscsssssssc" />
    <path
       style="fill:none;fill-rule:evenodd;stroke:#ff0000;stroke-width:1;stroke-linecap:butt;stroke-linejoin:miter;stroke-miterlimit:4;stroke-dasharray:1, 2;stroke-dashoffset:0;stroke-opacity:1"
       d="m 291.39254,166.06476 0.1859,-39.96316"
       id="path4197"
       inkscape:connector-curvature="0"
       sodipodi:nodetypes="cc" />
    <path
       sodipodi:nodetypes="cc"
       inkscape:connector-curvature="0"
       id="path4199"
       d="m 327.64221,157.24676 -0.22562,-34.61337"
       style="fill:none;fill-rule:evenodd;stroke:#ff0000;stroke-width:1;stroke-linecap:butt;stroke-linejoin:miter;stroke-miterlimit:4;stroke-dasharray:1, 2;stroke-dashoffset:0;stroke-opacity:1" />
    <path
       style="fill:none;fill-rule:evenodd;stroke:#ff0000;stroke-width:1;stroke-linecap:butt;stroke-linejoin:miter;stroke-miterlimit:4;stroke-dasharray:1, 2;stroke-dashoffset:0;stroke-opacity:1"
       d="m 366.53705,153.36702 0.1859,-34.20184"
       id="path4201"
       inkscape:connector-curvature="0"
       sodipodi:nodetypes="cc" />
    <path
       sodipodi:nodetypes="cc"
       inkscape:connector-curvature="0"
       id="path4203"
       d="m 402.95323,153.21241 0.1859,-56.012544"
       style="fill:none;fill-rule:evenodd;stroke:#ff0000;stroke-width:1;stroke-linecap:butt;stroke-linejoin:miter;stroke-miterlimit:4;stroke-dasharray:1, 2;stroke-dashoffset:0;stroke-opacity:1" />
    <path
       style="fill:url(#radialGradient4368);fill-rule:evenodd;stroke:#ff0000;stroke-width:1;stroke-linecap:butt;stroke-linejoin:miter;stroke-miterlimit:4;stroke-dasharray:1, 2;stroke-dashoffset:0;stroke-opacity:1;fill-opacity:1"
       d="m 439.36942,158.21966 0.1859,-65.066037"
       id="path4205"
       inkscape:connector-curvature="0"
       sodipodi:nodetypes="cc" />
    <path
       sodipodi:nodetypes="cc"
       inkscape:connector-curvature="0"
       id="path4207"
       d="m 476.77516,169.67093 -0.22562,-48.19361"
       style="fill:none;fill-rule:evenodd;stroke:#ff0000;stroke-width:1;stroke-linecap:butt;stroke-linejoin:miter;stroke-miterlimit:4;stroke-dasharray:1, 2;stroke-dashoffset:0;stroke-opacity:1" />
    <path
       sodipodi:nodetypes="cc"
       inkscape:connector-curvature="0"
       id="path4209"
       d="m 366.53705,262.60607 0.1859,-37.0825"
       style="fill:none;fill-rule:evenodd;stroke:#ff0000;stroke-width:1;stroke-linecap:butt;stroke-linejoin:miter;stroke-miterlimit:4;stroke-dasharray:1, 2;stroke-dashoffset:0;stroke-opacity:1" />
    <text
       xml:space="preserve"
       style="font-style:normal;font-weight:normal;font-size:40px;line-height:125%;font-family:Sans;letter-spacing:0px;word-spacing:0px;fill:#000000;fill-opacity:1;stroke:none;stroke-width:1px;stroke-linecap:butt;stroke-linejoin:miter;stroke-opacity:1"
       x="364.13043"
       y="204.53612"
       id="text4213"
       sodipodi:linespacing="125%"><tspan
         sodipodi:role="line"
         id="tspan4215"
         x="364.13043"
         y="204.53612">$\Omega_j$</tspan></text>
    <text
       xml:space="preserve"
       style="font-style:normal;font-weight:normal;font-size:40px;line-height:125%;font-family:Sans;letter-spacing:0px;word-spacing:0px;fill:#000000;fill-opacity:1;stroke:none;stroke-width:1px;stroke-linecap:butt;stroke-linejoin:miter;stroke-opacity:1"
       x="510.8696"
       y="257.797"
       id="text4217"
       sodipodi:linespacing="125%"><tspan
         sodipodi:role="line"
         id="tspan4219"
         x="510.8696"
         y="257.797">$\Gamma_j^{\rm i}$</tspan></text>
    <text
       sodipodi:linespacing="125%"
       id="text4221"
       y="294.75351"
       x="348.91309"
       style="font-style:normal;font-weight:normal;font-size:40px;line-height:125%;font-family:Sans;letter-spacing:0px;word-spacing:0px;fill:#000000;fill-opacity:1;stroke:none;stroke-width:1px;stroke-linecap:butt;stroke-linejoin:miter;stroke-opacity:1"
       xml:space="preserve"><tspan
         y="294.75351"
         x="348.91309"
         sodipodi:role="line"
         id="tspan4233">$\Gamma_j^{\rm e}$</tspan></text>
    <text
       xml:space="preserve"
       style="font-style:normal;font-weight:normal;font-size:40px;line-height:125%;font-family:Sans;letter-spacing:0px;word-spacing:0px;fill:#000000;fill-opacity:1;stroke:none;stroke-width:1px;stroke-linecap:butt;stroke-linejoin:miter;stroke-opacity:1"
       x="740.21741"
       y="286.05786"
       id="text4225"
       sodipodi:linespacing="125%"><tspan
         sodipodi:role="line"
         id="tspan4227"
         x="740.21741"
         y="286.05786" /></text>
    <text
       xml:space="preserve"
       style="font-style:normal;font-weight:normal;font-size:40px;line-height:125%;font-family:Sans;letter-spacing:0px;word-spacing:0px;fill:#000000;fill-opacity:1;stroke:none;stroke-width:1px;stroke-linecap:butt;stroke-linejoin:miter;stroke-opacity:1"
       x="282.60867"
       y="113.23177"
       id="text4229"
       sodipodi:linespacing="125%"><tspan
         sodipodi:role="line"
         id="tspan4231"
         x="282.60867"
         y="113.23177">$\red\Phi_{j,\varepsilon}$</tspan></text>
    <path
       inkscape:connector-curvature="0"
       id="path4550"
       d="m 259.20823,141.48875 0.58314,40.52862 c 0,0 16.61965,-9.62191 27.11627,-13.41235 10.49663,-3.79045 28.28257,-9.03876 41.11177,-11.07977 12.8292,-2.04101 31.78144,-3.79045 43.15278,-4.08202 11.37134,-0.29157 35.57188,1.16629 45.48536,2.33258 9.91347,1.1663 30.03199,4.3736 40.23704,7.28932 10.20505,2.91573 26.53313,8.45562 32.65616,12.82921 6.12303,4.37359 11.95448,6.12303 15.74493,10.49662 3.79045,4.37359 6.99775,9.33033 6.99775,9.33033 l -1.45787,-54.81569 c 0,0 -3.2073,-2.33258 -6.4146,-4.08202 -3.2073,-1.74944 -8.74718,-4.08202 -14.57864,-6.99775 -5.83146,-2.91572 -13.70392,-7.28932 -18.36909,-11.66291 -4.66516,-4.37359 -11.37134,-15.74493 -16.61965,-19.535376 -5.24831,-3.790447 -14.57864,-6.414602 -20.99324,-6.414602 -6.4146,0 -13.99549,-2.04101 -22.15953,1.166291 -8.16404,3.207301 -15.74493,6.997747 -20.70167,11.662917 -4.95674,4.66516 -12.82921,9.6219 -18.66066,12.24605 -5.83146,2.62416 -15.45336,4.08202 -23.03425,4.66517 -7.5809,0.58314 -19.53538,0.29157 -26.8247,0.29157 -7.28932,0 -11.37134,0.29157 -20.11853,1.45787 -8.74718,1.16629 -19.82695,1.74943 -26.53312,5.83145 -6.70618,4.08202 -16.61965,11.95449 -16.61965,11.95449 z"
       style="fill:url(#linearGradient4552);fill-opacity:1;fill-rule:evenodd;stroke:none;stroke-width:1px;stroke-linecap:butt;stroke-linejoin:miter;stroke-opacity:1;opacity:0.5" />
    <path
       inkscape:connector-curvature="0"
       id="path4566"
       d="m 332.51029,234.66673 0,25.10288 34.15638,2.88066 30.86419,0.41152 -0.41152,-42.38683 c 0,0 -9.0535,3.29218 -16.87243,4.11523 -7.81893,0.82304 -20.16461,-1.23457 -27.57201,0 -7.40741,1.23457 -20.16461,9.87654 -20.16461,9.87654 z"
       style="fill:url(#linearGradient4568);fill-opacity:1;fill-rule:evenodd;stroke:none;stroke-width:1px;stroke-linecap:butt;stroke-linejoin:miter;stroke-opacity:1;opacity:0.5" />
  </g>
</svg>
